<svg width="83" height="83" viewBox="0 0 83 83" fill="none" xmlns="http://www.w3.org/2000/svg">
<g filter="url(#filter0_d_615_31)">
<path d="M73.1667 75L46.9167 48.75C44.8333 50.4167 42.4375 51.7361 39.7292 52.7083C37.0208 53.6806 34.1389 54.1667 31.0833 54.1667C23.5139 54.1667 17.1076 51.5451 11.8646 46.3021C6.62153 41.059 4 34.6528 4 27.0833C4 19.5139 6.62153 13.1076 11.8646 7.86458C17.1076 2.62153 23.5139 0 31.0833 0C38.6528 0 45.059 2.62153 50.3021 7.86458C55.5451 13.1076 58.1667 19.5139 58.1667 27.0833C58.1667 30.1389 57.6806 33.0208 56.7083 35.7292C55.7361 38.4375 54.4167 40.8333 52.75 42.9167L79 69.1667L73.1667 75ZM31.0833 45.8333C36.2917 45.8333 40.7187 44.0104 44.3646 40.3646C48.0104 36.7187 49.8333 32.2917 49.8333 27.0833C49.8333 21.875 48.0104 17.4479 44.3646 13.8021C40.7187 10.1562 36.2917 8.33333 31.0833 8.33333C25.875 8.33333 21.4479 10.1562 17.8021 13.8021C14.1562 17.4479 12.3333 21.875 12.3333 27.0833C12.3333 32.2917 14.1562 36.7187 17.8021 40.3646C21.4479 44.0104 25.875 45.8333 31.0833 45.8333Z" fill="#FFF8FA"/>
</g>
<defs>
<filter id="filter0_d_615_31" x="0" y="0" width="83" height="83" filterUnits="userSpaceOnUse" color-interpolation-filters="sRGB">
<feFlood flood-opacity="0" result="BackgroundImageFix"/>
<feColorMatrix in="SourceAlpha" type="matrix" values="0 0 0 0 0 0 0 0 0 0 0 0 0 0 0 0 0 0 127 0" result="hardAlpha"/>
<feOffset dy="4"/>
<feGaussianBlur stdDeviation="2"/>
<feComposite in2="hardAlpha" operator="out"/>
<feColorMatrix type="matrix" values="0 0 0 0 0 0 0 0 0 0 0 0 0 0 0 0 0 0 0.4 0"/>
<feBlend mode="normal" in2="BackgroundImageFix" result="effect1_dropShadow_615_31"/>
<feBlend mode="normal" in="SourceGraphic" in2="effect1_dropShadow_615_31" result="shape"/>
</filter>
</defs>
</svg>
